<svg width="965" height="300" viewBox="0 0 965 300" fill="none" xmlns="http://www.w3.org/2000/svg">
<g clip-path="url(#clip0_139_526)">
<path d="M914.586 267.518C913.663 267.518 912.462 267.333 910.985 266.964C909.692 266.779 909.046 266.133 909.046 265.025C909.046 263.547 909.692 262.532 910.985 261.978C912.462 261.239 913.94 260.593 915.417 260.039C918.187 259.115 920.865 258.1 923.45 256.992C926.035 255.699 927.328 253.206 927.328 249.513V109.904C927.328 104.549 926.312 100.117 924.281 96.6084C922.434 92.9151 919.203 90.6067 914.586 89.6834C913.109 89.314 912.37 88.1137 912.37 86.0824C912.37 84.2357 913.016 83.1277 914.309 82.7584C919.11 81.6504 923.265 80.5424 926.774 79.4344C930.283 78.1417 933.514 76.849 936.469 75.5564C939.608 74.2637 942.655 73.0634 945.61 71.9554C946.349 71.586 946.903 71.4014 947.272 71.4014C947.641 71.4014 947.918 71.6784 948.103 72.2324C948.472 72.6017 948.657 72.971 948.657 73.3404C948.657 75.0024 948.288 78.6034 947.549 84.1434C946.995 89.4987 946.718 98.4551 946.718 111.012V249.513C946.718 253.206 948.011 255.699 950.596 256.992C953.181 258.1 955.859 259.115 958.629 260.039C960.106 260.593 961.491 261.239 962.784 261.978C964.261 262.532 965 263.547 965 265.025C965 266.133 964.261 266.779 962.784 266.964C961.491 267.333 960.383 267.518 959.46 267.518C955.951 267.518 953.089 267.333 950.873 266.964C948.842 266.779 946.81 266.594 944.779 266.41C942.932 266.225 940.347 266.133 937.023 266.133C933.884 266.133 931.298 266.225 929.267 266.41C927.236 266.594 925.204 266.779 923.173 266.964C921.142 267.333 918.279 267.518 914.586 267.518Z" fill="#F4F0E2"/>
<path d="M865.931 270.841C855.774 270.841 846.91 268.348 839.339 263.362C831.768 258.376 825.858 251.359 821.611 242.31C817.364 233.077 815.24 222.459 815.24 210.455C815.24 199.745 817.641 190.05 822.442 181.37C827.428 172.506 833.984 165.397 842.109 160.041C850.234 154.686 859.098 152.008 868.701 152.008C876.088 152.008 882.643 153.486 888.368 156.44C894.093 159.395 898.525 163.55 901.664 168.905C904.988 174.076 906.65 180.078 906.65 186.91C906.65 192.635 903.88 195.497 898.34 195.497H839.893C837.308 195.497 835.461 196.236 834.353 197.713C833.43 199.006 832.968 201.684 832.968 205.746C832.968 214.61 834.907 222.736 838.785 230.122C842.663 237.324 847.834 243.141 854.297 247.573C860.76 251.821 867.87 253.944 875.626 253.944C881.166 253.944 886.152 252.929 890.584 250.897C895.201 248.681 899.263 245.542 902.772 241.479C903.511 240.556 904.065 240.002 904.434 239.817C904.803 239.448 905.265 239.263 905.819 239.263C907.296 239.263 908.035 240.187 908.035 242.033C908.035 245.542 906.373 249.42 903.049 253.667C900.279 257.176 896.955 260.223 893.077 262.808C889.199 265.394 884.952 267.333 880.335 268.625C875.718 270.103 870.917 270.841 865.931 270.841ZM840.447 186.91H865.654C870.086 186.91 873.872 186.818 877.011 186.633C880.15 186.449 883.197 186.079 886.152 185.525C887.075 185.341 887.629 184.787 887.814 183.863C888.183 182.755 888.368 181.278 888.368 179.431C888.368 174.076 885.967 169.552 881.166 165.858C876.549 161.98 871.009 160.041 864.546 160.041C860.299 160.041 856.051 161.334 851.804 163.919C847.557 166.32 844.048 169.367 841.278 173.06C838.508 176.754 837.123 180.447 837.123 184.14C837.123 185.987 838.231 186.91 840.447 186.91Z" fill="#F4F0E2"/>
<path d="M747.195 270.565C743.133 270.565 739.07 270.195 735.007 269.457C730.945 268.718 727.067 267.887 723.373 266.964C719.311 265.856 715.71 264.84 712.57 263.917C709.616 262.993 707.677 262.532 706.753 262.532C705.645 262.532 704.537 262.901 703.429 263.64C702.506 264.378 701.583 265.209 700.659 266.133C699.736 267.056 698.905 267.518 698.166 267.518C697.428 267.518 696.597 267.241 695.673 266.687C694.75 265.948 694.288 265.117 694.288 264.194C694.288 262.532 694.565 259.669 695.119 255.607C695.858 251.544 696.227 247.758 696.227 244.25V109.904C696.227 105.103 695.027 100.948 692.626 97.4394C690.226 93.9307 687.179 91.3454 683.485 89.6834C682.747 89.314 681.916 88.8524 680.992 88.2984C680.254 87.5597 679.884 86.6364 679.884 85.5284C679.884 84.605 680.254 83.9587 680.992 83.5894C681.731 83.22 682.47 82.943 683.208 82.7584C685.609 82.2044 688.841 81.1887 692.903 79.7114C697.151 78.234 701.121 76.7567 704.814 75.2794C708.508 73.802 711.001 72.7864 712.293 72.2324C713.401 71.6784 714.232 71.4014 714.786 71.4014C715.156 71.4014 715.525 71.586 715.894 71.9554C716.264 72.3247 716.448 72.7864 716.448 73.3404C716.448 74.079 716.264 77.2184 715.894 82.7584C715.71 88.1137 715.617 94.6694 715.617 102.425V159.21C715.617 162.719 715.802 165.12 716.171 166.412C716.541 167.52 717.187 168.167 718.11 168.351C723.835 163.55 730.483 159.672 738.054 156.717C745.626 153.578 752.458 152.008 758.552 152.008C767.97 152.008 776.373 154.409 783.759 159.21C791.331 164.012 797.332 170.567 801.764 178.877C806.196 187.003 808.412 196.236 808.412 206.578C808.412 219.135 805.827 230.307 800.656 240.095C795.486 249.697 788.284 257.176 779.05 262.532C770.002 267.887 759.383 270.565 747.195 270.565ZM753.566 261.978C760.584 261.978 766.585 259.854 771.571 255.607C776.742 251.175 780.712 245.265 783.482 237.879C786.252 230.307 787.637 221.905 787.637 212.672C787.637 205.47 786.252 198.083 783.482 190.512C780.897 182.94 776.742 176.569 771.017 171.398C765.477 166.228 758.275 163.642 749.411 163.642C742.025 163.642 735.561 164.843 730.021 167.243C724.481 169.644 719.68 172.691 715.617 176.384V230.123C715.617 236.586 717.372 242.218 720.88 247.02C724.574 251.821 729.283 255.514 735.007 258.1C740.917 260.685 747.103 261.978 753.566 261.978Z" fill="#F4F0E2"/>
<path d="M637.601 270.841C627.444 270.841 618.58 268.348 611.009 263.362C603.437 258.376 597.528 251.359 593.281 242.31C589.033 233.077 586.91 222.459 586.91 210.455C586.91 199.745 589.31 190.05 594.112 181.37C599.098 172.506 605.653 165.397 613.779 160.041C621.904 154.686 630.768 152.008 640.371 152.008C647.757 152.008 654.313 153.486 660.038 156.44C665.762 159.395 670.194 163.55 673.334 168.905C676.658 174.076 678.32 180.078 678.32 186.91C678.32 192.635 675.55 195.497 670.01 195.497H611.563C608.977 195.497 607.131 196.236 606.023 197.713C605.099 199.006 604.638 201.684 604.638 205.746C604.638 214.61 606.577 222.736 610.455 230.122C614.333 237.324 619.503 243.141 625.967 247.573C632.43 251.821 639.54 253.944 647.296 253.944C652.836 253.944 657.822 252.929 662.254 250.897C666.87 248.681 670.933 245.542 674.442 241.479C675.18 240.556 675.734 240.002 676.104 239.817C676.473 239.448 676.935 239.263 677.489 239.263C678.966 239.263 679.705 240.187 679.705 242.033C679.705 245.542 678.043 249.42 674.719 253.667C671.949 257.176 668.625 260.223 664.747 262.808C660.869 265.394 656.621 267.333 652.005 268.625C647.388 270.103 642.587 270.841 637.601 270.841ZM612.117 186.91H637.324C641.756 186.91 645.541 186.818 648.681 186.633C651.82 186.449 654.867 186.079 657.822 185.525C658.745 185.341 659.299 184.787 659.484 183.863C659.853 182.755 660.038 181.278 660.038 179.431C660.038 174.076 657.637 169.552 652.836 165.858C648.219 161.98 642.679 160.041 636.216 160.041C631.968 160.041 627.721 161.334 623.474 163.919C619.226 166.32 615.718 169.367 612.948 173.06C610.178 176.754 608.793 180.447 608.793 184.14C608.793 185.987 609.901 186.91 612.117 186.91Z" fill="#F4F0E2"/>
<path d="M510.739 267.518C508.892 267.518 507.507 267.241 506.584 266.687C505.661 266.317 505.199 265.579 505.199 264.471C505.199 262.993 505.753 262.07 506.861 261.701C507.969 261.147 509.539 260.593 511.57 260.039C515.079 259.115 517.664 257.823 519.326 256.161C521.173 254.314 522.096 252.098 522.096 249.513V189.958C522.096 184.972 521.357 180.632 519.88 176.939C518.403 173.245 515.356 170.937 510.739 170.014C510 169.829 509.354 169.367 508.8 168.629C508.246 167.89 507.969 167.151 507.969 166.413C507.969 164.566 508.8 163.458 510.462 163.089C515.263 161.611 520.249 159.488 525.42 156.718C530.775 153.763 534.93 151.362 537.885 149.516C538.993 148.777 539.824 148.315 540.378 148.131C541.117 147.761 541.671 147.577 542.04 147.577C542.963 147.577 543.425 148.223 543.425 149.516C543.425 150.07 543.333 151.455 543.148 153.671C543.148 155.887 543.056 158.472 542.871 161.427C542.871 164.381 542.779 167.336 542.594 170.291C542.594 170.66 542.779 170.845 543.148 170.845C546.103 167.151 549.334 163.92 552.843 161.15C556.536 158.38 560.23 156.164 563.923 154.502C567.801 152.84 571.494 152.009 575.003 152.009C578.881 152.009 582.02 152.84 584.421 154.502C587.006 156.164 588.299 158.287 588.299 160.873C588.299 162.719 587.745 164.751 586.637 166.967C585.714 169.183 584.421 171.122 582.759 172.784C581.097 174.446 579.343 175.277 577.496 175.277C576.388 175.277 575.188 175.092 573.895 174.723C572.602 174.169 571.217 173.522 569.74 172.784C568.263 172.23 566.785 171.676 565.308 171.122C563.831 170.568 562.353 170.291 560.876 170.291C556.444 170.291 552.104 171.86 547.857 175C543.794 178.139 541.763 184.325 541.763 193.559V249.513C541.763 251.913 543.056 253.945 545.641 255.607C548.226 257.084 551.827 258.561 556.444 260.039C558.475 260.593 560.045 261.147 561.153 261.701C562.261 262.255 562.815 263.178 562.815 264.471C562.815 266.502 560.968 267.518 557.275 267.518C551.735 267.518 547.488 267.241 544.533 266.687C541.763 266.317 537.977 266.133 533.176 266.133C530.037 266.133 527.451 266.225 525.42 266.41C523.573 266.594 521.542 266.779 519.326 266.964C517.295 267.333 514.432 267.518 510.739 267.518Z" fill="#F4F0E2"/>
<path d="M459.314 270.841C449.158 270.841 440.294 268.348 432.722 263.362C425.151 258.376 419.242 251.359 414.994 242.31C410.747 233.077 408.623 222.459 408.623 210.455C408.623 199.745 411.024 190.05 415.825 181.37C420.811 172.506 427.367 165.397 435.492 160.041C443.618 154.686 452.482 152.008 462.084 152.008C469.471 152.008 476.027 153.486 481.751 156.44C487.476 159.395 491.908 163.55 495.047 168.905C498.371 174.076 500.033 180.078 500.033 186.91C500.033 192.635 497.263 195.497 491.723 195.497H433.276C430.691 195.497 428.844 196.236 427.736 197.713C426.813 199.006 426.351 201.684 426.351 205.746C426.351 214.61 428.29 222.736 432.168 230.122C436.046 237.324 441.217 243.141 447.68 247.573C454.144 251.821 461.253 253.944 469.009 253.944C474.549 253.944 479.535 252.929 483.967 250.897C488.584 248.681 492.647 245.542 496.155 241.479C496.894 240.556 497.448 240.002 497.817 239.817C498.187 239.448 498.648 239.263 499.202 239.263C500.68 239.263 501.418 240.187 501.418 242.033C501.418 245.542 499.756 249.42 496.432 253.667C493.662 257.176 490.338 260.223 486.46 262.808C482.582 265.394 478.335 267.333 473.718 268.625C469.102 270.103 464.3 270.841 459.314 270.841ZM433.83 186.91H459.037C463.469 186.91 467.255 186.818 470.394 186.633C473.534 186.449 476.581 186.079 479.535 185.525C480.459 185.341 481.013 184.787 481.197 183.863C481.567 182.755 481.751 181.278 481.751 179.431C481.751 174.076 479.351 169.552 474.549 165.858C469.933 161.98 464.393 160.041 457.929 160.041C453.682 160.041 449.435 161.334 445.187 163.919C440.94 166.32 437.431 169.367 434.661 173.06C431.891 176.754 430.506 180.447 430.506 184.14C430.506 185.987 431.614 186.91 433.83 186.91Z" fill="#F4F0E2"/>
<path d="M287.033 268.072C284.632 268.072 282.693 267.795 281.216 267.241C279.739 266.871 279 266.133 279 265.025C279 262.809 282.047 261.147 288.141 260.039C295.158 258.746 300.237 256.622 303.376 253.668C306.7 250.713 308.362 245.819 308.362 238.987V122.092C308.362 113.782 307.254 107.411 305.038 102.979C303.007 98.5474 298.482 95.6851 291.465 94.3924C288.326 93.8384 286.017 93.0998 284.54 92.1764C283.063 91.2531 282.324 90.1451 282.324 88.8524C282.324 87.7444 283.063 87.0058 284.54 86.6364C286.017 86.0824 287.956 85.8054 290.357 85.8054C295.343 85.8054 299.036 85.8054 301.437 85.8054C304.022 85.8054 306.423 85.8978 308.639 86.0824C310.855 86.0824 313.81 86.0824 317.503 86.0824C321.196 86.0824 324.89 85.9901 328.583 85.8054C332.461 85.4361 336.062 85.1591 339.386 84.9744C342.71 84.6051 345.665 84.4204 348.25 84.4204C369.302 84.4204 386.199 88.7601 398.941 97.4394C411.868 106.119 418.331 118.214 418.331 133.726C418.331 144.991 416.115 155.425 411.683 165.028C407.251 174.446 400.418 182.017 391.185 187.742C382.136 193.466 370.502 196.329 356.283 196.329C352.22 196.329 349.081 195.775 346.865 194.667C344.834 193.374 343.818 192.174 343.818 191.066C343.818 190.327 344.28 189.496 345.203 188.573C346.311 187.649 347.327 187.188 348.25 187.188C349.173 187.188 350.558 187.28 352.405 187.465C354.436 187.649 357.299 187.742 360.992 187.742C372.072 187.742 380.382 183.125 385.922 173.892C391.647 164.658 394.509 151.916 394.509 135.665C394.509 120.892 390.169 109.997 381.49 102.979C372.811 95.7774 361.731 92.1764 348.25 92.1764C343.079 92.1764 338.832 93.0998 335.508 94.9464C332.184 96.6084 330.522 99.5631 330.522 103.81V235.94C330.522 242.588 331.907 247.943 334.677 252.006C337.447 256.068 342.248 258.746 349.081 260.039C352.22 260.593 354.529 261.239 356.006 261.978C357.483 262.716 358.222 263.732 358.222 265.025C358.222 266.133 357.483 266.871 356.006 267.241C354.529 267.795 352.59 268.072 350.189 268.072C345.203 268.072 341.325 267.887 338.555 267.518C335.97 267.148 333.569 266.871 331.353 266.687C329.322 266.317 326.552 266.133 323.043 266.133C318.426 266.133 314.271 266.317 310.578 266.687C307.069 266.871 303.468 267.148 299.775 267.518C296.266 267.887 292.019 268.072 287.033 268.072Z" fill="#F4F0E2"/>
<path d="M116.5 0C180.841 0 233 52.4666 233 117.188V300H0V117.188C0 52.4666 52.1588 0 116.5 0ZM132.033 190.625C127.744 190.625 124.267 194.123 124.267 198.438V260.938C124.267 265.252 127.744 268.75 132.033 268.75H194.167C198.456 268.75 201.933 265.252 201.933 260.938V198.438C201.933 194.123 198.456 190.625 194.167 190.625H132.033Z" fill="#F4F0E2"/>
</g>
<defs>
<clipPath id="clip0_139_526">
<rect width="965" height="300" fill="white"/>
</clipPath>
</defs>
</svg>
