<svg width="897" height="261" viewBox="0 0 897 261" fill="none" xmlns="http://www.w3.org/2000/svg">
<path d="M830.621 256.296C829.414 256.296 827.846 256.055 825.915 255.572C824.226 255.331 823.381 254.486 823.381 253.038C823.381 251.107 824.226 249.78 825.915 249.056C827.846 248.091 829.776 247.246 831.707 246.522C835.327 245.315 838.826 243.988 842.205 242.54C845.584 240.851 847.273 237.593 847.273 232.766V50.318C847.273 43.3193 845.946 37.5273 843.291 32.942C840.878 28.1153 836.654 25.0987 830.621 23.892C828.69 23.4093 827.725 21.8407 827.725 19.186C827.725 16.7727 828.57 15.3247 830.259 14.842C836.534 13.394 841.964 11.946 846.549 10.498C851.134 8.80867 855.358 7.11933 859.219 5.42999C863.322 3.74067 867.304 2.17201 871.165 0.724014C872.13 0.241339 872.854 0 873.337 0C873.82 0 874.182 0.362001 874.423 1.08601C874.906 1.56867 875.147 2.05134 875.147 2.53401C875.147 4.70601 874.664 9.41201 873.699 16.652C872.975 23.6507 872.613 35.3553 872.613 51.766V232.766C872.613 237.593 874.302 240.851 877.681 242.54C881.06 243.988 884.559 245.315 888.179 246.522C890.11 247.246 891.92 248.091 893.609 249.056C895.54 249.78 896.505 251.107 896.505 253.038C896.505 254.486 895.54 255.331 893.609 255.572C891.92 256.055 890.472 256.296 889.265 256.296C884.68 256.296 880.939 256.055 878.043 255.572C875.388 255.331 872.734 255.089 870.079 254.848C867.666 254.607 864.287 254.486 859.943 254.486C855.84 254.486 852.462 254.607 849.807 254.848C847.152 255.089 844.498 255.331 841.843 255.572C839.188 256.055 835.448 256.296 830.621 256.296Z" fill="#2B0000"/>
<path d="M767.036 260.64C753.763 260.64 742.179 257.382 732.284 250.866C722.389 244.35 714.667 235.179 709.116 223.354C703.565 211.287 700.79 197.411 700.79 181.724C700.79 167.727 703.927 155.057 710.202 143.714C716.718 132.13 725.285 122.839 735.904 115.84C746.523 108.841 758.107 105.342 770.656 105.342C780.309 105.342 788.877 107.273 796.358 111.134C803.839 114.995 809.631 120.425 813.734 127.424C818.078 134.181 820.25 142.025 820.25 150.954C820.25 158.435 816.63 162.176 809.39 162.176H733.008C729.629 162.176 727.216 163.141 725.768 165.072C724.561 166.761 723.958 170.261 723.958 175.57C723.958 187.154 726.492 197.773 731.56 207.426C736.628 216.838 743.385 224.44 751.832 230.232C760.279 235.783 769.57 238.558 779.706 238.558C786.946 238.558 793.462 237.231 799.254 234.576C805.287 231.68 810.597 227.577 815.182 222.268C816.147 221.061 816.871 220.337 817.354 220.096C817.837 219.613 818.44 219.372 819.164 219.372C821.095 219.372 822.06 220.579 822.06 222.992C822.06 227.577 819.888 232.645 815.544 238.196C811.924 242.781 807.58 246.763 802.512 250.142C797.444 253.521 791.893 256.055 785.86 257.744C779.827 259.675 773.552 260.64 767.036 260.64ZM733.732 150.954H766.674C772.466 150.954 777.413 150.833 781.516 150.592C785.619 150.351 789.601 149.868 793.462 149.144C794.669 148.903 795.393 148.179 795.634 146.972C796.117 145.524 796.358 143.593 796.358 141.18C796.358 134.181 793.221 128.269 786.946 123.442C780.913 118.374 773.673 115.84 765.226 115.84C759.675 115.84 754.125 117.529 748.574 120.908C743.023 124.045 738.438 128.027 734.818 132.854C731.198 137.681 729.388 142.507 729.388 147.334C729.388 149.747 730.836 150.954 733.732 150.954Z" fill="#2B0000"/>
<path d="M611.865 260.278C606.556 260.278 601.247 259.795 595.937 258.83C590.628 257.865 585.56 256.779 580.733 255.572C575.424 254.124 570.718 252.797 566.615 251.59C562.754 250.383 560.22 249.78 559.013 249.78C557.565 249.78 556.117 250.263 554.669 251.228C553.463 252.193 552.256 253.279 551.049 254.486C549.843 255.693 548.757 256.296 547.791 256.296C546.826 256.296 545.74 255.934 544.533 255.21C543.327 254.245 542.723 253.159 542.723 251.952C542.723 249.78 543.085 246.039 543.809 240.73C544.775 235.421 545.257 230.473 545.257 225.888V50.318C545.257 44.0433 543.689 38.6133 540.551 34.028C537.414 29.4427 533.432 26.064 528.605 23.892C527.64 23.4093 526.554 22.806 525.347 22.082C524.382 21.1167 523.899 19.91 523.899 18.462C523.899 17.2553 524.382 16.4107 525.347 15.928C526.313 15.4453 527.278 15.0833 528.243 14.842C531.381 14.118 535.604 12.7907 540.913 10.86C546.464 8.92934 551.653 6.99867 556.479 5.068C561.306 3.13733 564.564 1.81 566.253 1.08601C567.701 0.362001 568.787 0 569.511 0C569.994 0 570.477 0.241339 570.959 0.724014C571.442 1.20667 571.683 1.81001 571.683 2.53401C571.683 3.49935 571.442 7.60201 570.959 14.842C570.718 21.8407 570.597 30.408 570.597 40.544V114.754C570.597 119.339 570.839 122.477 571.321 124.166C571.804 125.614 572.649 126.459 573.855 126.7C581.337 120.425 590.025 115.357 599.919 111.496C609.814 107.393 618.743 105.342 626.707 105.342C639.015 105.342 649.996 108.479 659.649 114.754C669.544 121.029 677.387 129.596 683.179 140.456C688.971 151.075 691.867 163.141 691.867 176.656C691.867 193.067 688.489 207.667 681.731 220.458C674.974 233.007 665.562 242.781 653.495 249.78C641.67 256.779 627.793 260.278 611.865 260.278ZM620.191 249.056C629.362 249.056 637.205 246.281 643.721 240.73C650.479 234.938 655.667 227.215 659.287 217.562C662.907 207.667 664.717 196.687 664.717 184.62C664.717 175.208 662.907 165.555 659.287 155.66C655.909 145.765 650.479 137.439 642.997 130.682C635.757 123.925 626.345 120.546 614.761 120.546C605.108 120.546 596.661 122.115 589.421 125.252C582.181 128.389 575.907 132.371 570.597 137.198V207.426C570.597 215.873 572.89 223.233 577.475 229.508C582.302 235.783 588.456 240.609 595.937 243.988C603.66 247.367 611.745 249.056 620.191 249.056Z" fill="#2B0000"/>
<path d="M468.641 260.64C455.367 260.64 443.783 257.382 433.889 250.866C423.994 244.35 416.271 235.179 410.721 223.354C405.17 211.287 402.395 197.411 402.395 181.724C402.395 167.727 405.532 155.057 411.807 143.714C418.323 132.13 426.89 122.839 437.509 115.84C448.127 108.841 459.711 105.342 472.261 105.342C481.914 105.342 490.481 107.273 497.963 111.134C505.444 114.995 511.236 120.425 515.339 127.424C519.683 134.181 521.855 142.025 521.855 150.954C521.855 158.435 518.235 162.176 510.995 162.176H434.613C431.234 162.176 428.821 163.141 427.373 165.072C426.166 166.761 425.563 170.261 425.563 175.57C425.563 187.154 428.097 197.773 433.165 207.426C438.233 216.838 444.99 224.44 453.437 230.232C461.883 235.783 471.175 238.558 481.311 238.558C488.551 238.558 495.067 237.231 500.859 234.576C506.892 231.68 512.201 227.577 516.787 222.268C517.752 221.061 518.476 220.337 518.959 220.096C519.441 219.613 520.045 219.372 520.769 219.372C522.699 219.372 523.665 220.579 523.665 222.992C523.665 227.577 521.493 232.645 517.149 238.196C513.529 242.781 509.185 246.763 504.117 250.142C499.049 253.521 493.498 256.055 487.465 257.744C481.431 259.675 475.157 260.64 468.641 260.64ZM435.337 150.954H468.279C474.071 150.954 479.018 150.833 483.121 150.592C487.223 150.351 491.205 149.868 495.067 149.144C496.273 148.903 496.997 148.179 497.239 146.972C497.721 145.524 497.963 143.593 497.963 141.18C497.963 134.181 494.825 128.269 488.551 123.442C482.517 118.374 475.277 115.84 466.831 115.84C461.28 115.84 455.729 117.529 450.179 120.908C444.628 124.045 440.043 128.027 436.423 132.854C432.803 137.681 430.993 142.507 430.993 147.334C430.993 149.747 432.441 150.954 435.337 150.954Z" fill="#2B0000"/>
<path d="M302.85 256.296C300.437 256.296 298.627 255.934 297.42 255.21C296.214 254.727 295.61 253.762 295.61 252.314C295.61 250.383 296.334 249.177 297.782 248.694C299.23 247.97 301.282 247.246 303.936 246.522C308.522 245.315 311.9 243.626 314.072 241.454C316.486 239.041 317.692 236.145 317.692 232.766V154.936C317.692 148.42 316.727 142.749 314.796 137.922C312.866 133.095 308.884 130.079 302.85 128.872C301.885 128.631 301.04 128.027 300.316 127.062C299.592 126.097 299.23 125.131 299.23 124.166C299.23 121.753 300.316 120.305 302.488 119.822C308.763 117.891 315.279 115.116 322.036 111.496C329.035 107.635 334.465 104.497 338.326 102.084C339.774 101.119 340.86 100.515 341.584 100.274C342.55 99.7913 343.274 99.5499 343.756 99.5499C344.963 99.5499 345.566 100.395 345.566 102.084C345.566 102.808 345.446 104.618 345.204 107.514C345.204 110.41 345.084 113.789 344.842 117.65C344.842 121.511 344.722 125.373 344.48 129.234C344.48 129.717 344.722 129.958 345.204 129.958C349.066 125.131 353.289 120.908 357.874 117.288C362.701 113.668 367.528 110.772 372.354 108.6C377.422 106.428 382.249 105.342 386.834 105.342C391.902 105.342 396.005 106.428 399.142 108.6C402.521 110.772 404.21 113.547 404.21 116.926C404.21 119.339 403.486 121.994 402.038 124.89C400.832 127.786 399.142 130.32 396.97 132.492C394.798 134.664 392.506 135.75 390.092 135.75C388.644 135.75 387.076 135.509 385.386 135.026C383.697 134.302 381.887 133.457 379.956 132.492C378.026 131.768 376.095 131.044 374.164 130.32C372.234 129.596 370.303 129.234 368.372 129.234C362.58 129.234 356.909 131.285 351.358 135.388C346.049 139.491 343.394 147.575 343.394 159.642V232.766C343.394 235.903 345.084 238.558 348.462 240.73C351.841 242.661 356.547 244.591 362.58 246.522C365.235 247.246 367.286 247.97 368.734 248.694C370.182 249.418 370.906 250.625 370.906 252.314C370.906 254.969 368.493 256.296 363.666 256.296C356.426 256.296 350.876 255.934 347.014 255.21C343.394 254.727 338.447 254.486 332.172 254.486C328.07 254.486 324.691 254.607 322.036 254.848C319.623 255.089 316.968 255.331 314.072 255.572C311.418 256.055 307.677 256.296 302.85 256.296Z" fill="#2B0000"/>
<path d="M235.645 260.64C222.372 260.64 210.788 257.382 200.893 250.866C190.999 244.35 183.276 235.179 177.725 223.354C172.175 211.287 169.399 197.411 169.399 181.724C169.399 167.727 172.537 155.057 178.811 143.714C185.327 132.13 193.895 122.839 204.513 115.84C215.132 108.841 226.716 105.342 239.265 105.342C248.919 105.342 257.486 107.273 264.967 111.134C272.449 114.995 278.241 120.425 282.343 127.424C286.687 134.181 288.859 142.025 288.859 150.954C288.859 158.435 285.239 162.176 277.999 162.176H201.617C198.239 162.176 195.825 163.141 194.377 165.072C193.171 166.761 192.567 170.261 192.567 175.57C192.567 187.154 195.101 197.773 200.169 207.426C205.237 216.838 211.995 224.44 220.441 230.232C228.888 235.783 238.179 238.558 248.315 238.558C255.555 238.558 262.071 237.231 267.863 234.576C273.897 231.68 279.206 227.577 283.791 222.268C284.757 221.061 285.481 220.337 285.963 220.096C286.446 219.613 287.049 219.372 287.773 219.372C289.704 219.372 290.669 220.579 290.669 222.992C290.669 227.577 288.497 232.645 284.153 238.196C280.533 242.781 276.189 246.763 271.121 250.142C266.053 253.521 260.503 256.055 254.469 257.744C248.436 259.675 242.161 260.64 235.645 260.64ZM202.341 150.954H235.283C241.075 150.954 246.023 150.833 250.125 150.592C254.228 150.351 258.21 149.868 262.071 149.144C263.278 148.903 264.002 148.179 264.243 146.972C264.726 145.524 264.967 143.593 264.967 141.18C264.967 134.181 261.83 128.269 255.555 123.442C249.522 118.374 242.282 115.84 233.835 115.84C228.285 115.84 222.734 117.529 217.183 120.908C211.633 124.045 207.047 128.027 203.427 132.854C199.807 137.681 197.997 142.507 197.997 147.334C197.997 149.747 199.445 150.954 202.341 150.954Z" fill="#2B0000"/>
<path d="M10.498 257.02C7.36067 257.02 4.82667 256.658 2.896 255.934C0.965334 255.451 0 254.486 0 253.038C0 250.142 3.982 247.97 11.946 246.522C21.1167 244.833 27.7533 242.057 31.856 238.196C36.2 234.335 38.372 227.939 38.372 219.01V66.2459C38.372 55.3859 36.924 47.0599 34.028 41.2679C31.3733 35.4759 25.4607 31.7353 16.29 30.0459C12.1873 29.3219 9.17067 28.3566 7.24 27.1499C5.30933 25.9433 4.344 24.4953 4.344 22.8059C4.344 21.3579 5.30933 20.3926 7.24 19.9099C9.17067 19.1859 11.7047 18.8239 14.842 18.8239C21.358 18.8239 26.1847 18.8239 29.322 18.8239C32.7007 18.8239 35.838 18.9446 38.734 19.1859C41.63 19.1859 45.4913 19.1859 50.318 19.1859C55.1447 19.1859 59.9713 19.0653 64.798 18.8239C69.866 18.3413 74.572 17.9793 78.916 17.7379C83.26 17.2553 87.1213 17.0139 90.5 17.0139C118.012 17.0139 140.094 22.6853 156.746 34.0279C173.639 45.3706 182.086 61.1779 182.086 81.4499C182.086 96.1713 179.19 109.807 173.398 122.356C167.606 134.664 158.677 144.559 146.61 152.04C134.785 159.521 119.581 163.262 100.998 163.262C95.6887 163.262 91.586 162.538 88.69 161.09C86.0353 159.401 84.708 157.832 84.708 156.384C84.708 155.419 85.3113 154.333 86.518 153.126C87.966 151.919 89.2933 151.316 90.5 151.316C91.7067 151.316 93.5167 151.437 95.93 151.678C98.5847 151.919 102.325 152.04 107.152 152.04C121.632 152.04 132.492 146.007 139.732 133.94C147.213 121.873 150.954 105.221 150.954 83.9839C150.954 64.6773 145.283 50.4386 133.94 41.2679C122.597 31.8559 108.117 27.1499 90.5 27.1499C83.7427 27.1499 78.192 28.3566 73.848 30.7699C69.504 32.9419 67.332 36.8033 67.332 42.3539V215.028C67.332 223.716 69.142 230.715 72.762 236.024C76.382 241.333 82.6567 244.833 91.586 246.522C95.6887 247.246 98.7053 248.091 100.636 249.056C102.567 250.021 103.532 251.349 103.532 253.038C103.532 254.486 102.567 255.451 100.636 255.934C98.7053 256.658 96.1713 257.02 93.034 257.02C86.518 257.02 81.45 256.779 77.83 256.296C74.4513 255.813 71.314 255.451 68.418 255.21C65.7633 254.727 62.1433 254.486 57.558 254.486C51.5247 254.486 46.0947 254.727 41.268 255.21C36.6827 255.451 31.9767 255.813 27.15 256.296C22.5647 256.779 17.014 257.02 10.498 257.02Z" fill="#2B0000"/>
</svg>