<svg xmlns="http://www.w3.org/2000/svg" viewBox="0 0 32.88 45.63">
  <path fill="currentColor" d="M24.06.84c1.88,1.88,6.24,6.24,8.03,8.03.51.51.79,1.19.79,1.91v17.56c0,.72-.28,1.4-.79,1.91l-8.12,8.12c-.51.51-.79,1.19-.79,1.91v3.82c0,.85-.69,1.55-1.55,1.55h-4.65c-.85,0-1.55-.69-1.55-1.55V1.55c0-.87.71-1.57,1.58-1.54,1.52.04,3.76.08,5.08.05.73-.02,1.44.27,1.96.79Z"/>
  <path fill="#b7b7b7" d="M16.34.84c1.88,1.88,6.24,6.24,8.03,8.03.51.51.79,1.19.79,1.91v17.56c0,.72-.28,1.4-.79,1.91l-8.12,8.12c-.51.51-.79,1.19-.79,1.91v3.82c0,.85-.69,1.55-1.55,1.55h-4.65c-.85,0-1.55-.69-1.55-1.55V1.55c0-.87.71-1.57,1.58-1.54,1.52.04,3.76.08,5.08.05.73-.02,1.44.27,1.96.79Z"/>
  <path fill="#fff" d="M8.62.84c1.88,1.88,6.24,6.24,8.03,8.03.51.51.79,1.19.79,1.91v17.56c0,.72-.28,1.4-.79,1.91l-8.12,8.12c-.51.51-.79,1.19-.79,1.91v3.82c0,.85-.69,1.55-1.55,1.55H1.55c-.85,0-1.55-.69-1.55-1.55V1.55C0,.68.71-.02,1.58,0c1.52.04,3.76.08,5.08.05.73-.02,1.44.27,1.96.79Z"/>
</svg>
