<svg xmlns="http://www.w3.org/2000/svg" viewBox="0 0 57.03 56.54">
  <path fill="currentColor" d="M11.42,56.54c-1.27,0-2.57-.16-3.91-.48-4.01-.96-6.6-3.6-7.32-7.42-1.59-8.5,6.95-22.6,17.47-33.39-3.01.07-5.17-.2-5.36-.22l.82-6.34-.41,3.17.41-3.17c.08.01,8.02.97,13.88-1.69.53-.4,1.06-.78,1.59-1.14C37.1-.03,44.28-1.51,49.36,1.56c5.3,3.21,8.15,9.91,7.6,17.91-.64,9.42-5.71,17.53-12.93,20.66-3.66,1.59-8.97,2.42-15.83-.27-1.9,6.23-4.55,10.75-7.93,13.51-2.57,2.1-5.59,3.17-8.87,3.17ZM25.21,16.82C14.42,26.87,5.29,41.14,6.47,47.46c.18.96.79,2.4,2.53,2.92,2.28.67,5.19-.29,7.24-1.96,2.82-2.3,4.8-6.56,6.17-11.51-1.72-1.07-3.51-2.35-5.38-3.88l3.51-4.95c.94.77,2.41,1.48,3.33,2.13.78-4.65,1.17-9.4,1.33-13.39ZM29.76,33.59c4.39,1.9,8.36,2.15,11.74.68,5.74-2.49,8.7-9.44,9.09-15.23.37-5.49-1.37-10.09-4.54-12.01-2.68-1.63-7.72-.14-13.82,4.08-.19.13-.37.26-.56.39.02,2.9-.07,9.02-.92,15.82-.28,2.21-.61,4.3-1,6.27Z"/>
  <path fill="currentColor" d="M35.12,54.32c-2.58,0-4.67-2.1-4.67-4.67s2.1-4.67,4.67-4.67,4.67,2.1,4.67,4.67-2.1,4.67-4.67,4.67Z"/>
</svg>
