<svg xmlns="http://www.w3.org/2000/svg" viewBox="0 0 70.66 70.66">
  <path fill="currentColor" d="M25.55,50.87c-.05-5.18,5.38-10.05,8.16-12.89.89-.91,2.35-.92,3.25-.01,2.81,2.82,8.16,7.37,8.26,12.82s-4.37,9.86-9.8,9.88-9.82-4.37-9.88-9.8Z"/>
  <path fill="currentColor" d="M19.8,25.56c5.18-.05,10.05,5.38,12.89,8.16.91.89.92,2.35.01,3.25-2.82,2.81-7.37,8.16-12.82,8.26s-9.86-4.37-9.88-9.8,4.37-9.82,9.8-9.88Z"/>
  <path fill="currentColor" d="M45.11,19.8c.05,5.18-5.38,10.05-8.16,12.89-.89.91-2.35.92-3.25.01-2.81-2.82-8.16-7.37-8.26-12.82s4.37-9.86,9.8-9.88,9.82,4.37,9.88,9.8Z"/>
  <path fill="currentColor" d="M50.86,45.11c-5.18.05-10.05-5.38-12.89-8.16-.91-.89-.92-2.35-.01-3.25,2.82-2.81,7.37-8.16,12.82-8.26s9.86,4.37,9.88,9.8-4.37,9.82-9.8,9.88Z"/>
</svg>
