<svg xmlns="http://www.w3.org/2000/svg" viewBox="0 0 82.76 82.76">
  <path fill="currentColor" d="M10.88,42.09c6.64-3.86,16.88-.44,22.57,1.06,1.83.48,2.91,2.36,2.4,4.18-1.57,5.68-3.51,15.9-10.46,20.03s-15.89,1.6-19.9-5.38-1.58-15.85,5.38-19.9Z"/>
  <path fill="currentColor" d="M25.51,15.32c6.67,3.81,8.82,14.39,10.37,20.08.5,1.82-.59,3.7-2.42,4.17-5.7,1.48-15.53,4.91-22.58.96S1.55,27.57,5.59,20.61s12.93-9.29,19.92-5.29Z"/>
  <path fill="currentColor" d="M56.01,14.61c.03,7.68-8.05,14.84-12.2,19.02-1.33,1.34-3.5,1.34-4.82-.01-4.13-4.2-12.02-10.99-12.12-19.07S33.42-.02,41.47,0s14.51,6.56,14.54,14.61Z"/>
  <path fill="currentColor" d="M71.88,40.67c-6.64,3.86-16.88.44-22.57-1.06-1.83-.48-2.91-2.36-2.4-4.18,1.57-5.68,3.51-15.9,10.46-20.03s15.89-1.6,19.9,5.38,1.58,15.85-5.38,19.9Z"/>
  <path fill="currentColor" d="M57.25,67.44c-6.67-3.81-8.82-14.39-10.37-20.08-.5-1.82.59-3.7,2.42-4.17,5.7-1.48,15.53-4.91,22.58-.96s9.33,12.96,5.29,19.92-12.93,9.29-19.92,5.29Z"/>
  <path fill="currentColor" d="M26.75,68.15c-.03-7.68,8.05-14.84,12.2-19.02,1.33-1.34,3.5-1.34,4.82.01,4.13,4.2,12.02,10.99,12.12,19.07s-6.56,14.56-14.61,14.54-14.51-6.56-14.54-14.61Z"/>
</svg>
