<svg xmlns="http://www.w3.org/2000/svg" viewBox="0 0 34.11 48.16">
  <path fill="currentColor" d="M21.27,28.82h-2.06v1.58c0,.29-.26.51-.54.45-.53-.1-1.07-.15-1.62-.15s-1.1.05-1.62.15c-.28.05-.54-.17-.54-.45v-1.58h-2.05s0,2.85,0,2.71c0-.16-.09.31-.23.4-2.59,1.54-4.32,4.38-4.28,7.62.06,4.82,3.95,8.64,8.77,8.61s8.68-3.92,8.68-8.73c0-3.2-1.72-5.99-4.29-7.51-.14-.08-.22-.23-.22-.4v-2.71Z"/>
  <path fill="currentColor" d="M12.69,27.14v-4.54c0-.17-.09-.33-.24-.42-2.65-1.57-4.42-4.46-4.42-7.77,0-5.13,4.28-9.26,9.46-9.02,4.6.21,8.38,3.99,8.59,8.59.16,3.48-1.65,6.56-4.42,8.2-.15.09-.24.24-.24.41v4.54s8.26,0,8.26,0c.99,0,1.83-.75,1.94-1.74l2.49-23.25c.12-1.15-.78-2.15-1.94-2.15H1.95C.79,0-.11,1,.01,2.15l2.49,23.25c.11.99.94,1.74,1.94,1.74h8.26Z"/>
  <path fill="currentColor" d="M18.74,23.29c-.54.1-1.11.16-1.68.16s-1.14-.05-1.68-.16c-.29-.05-.56.17-.56.47v3.38h4.48v-3.38c0-.3-.27-.53-.56-.47Z"/>
</svg>
