<svg xmlns="http://www.w3.org/2000/svg" viewBox="0 0 53.72 64.35">
  <path fill="currentColor" d="M38.61,32.57c.18,0,.33-.14.33-.32-.05-4.46-1.07-7.93-3.06-10.41-2.04-2.54-5.06-3.81-9.07-3.81s-6.91,1.25-8.95,3.75c-2.04,2.5-3.06,6.11-3.06,10.8v13.9c0,.17.14.31.31.31h38.3c.17,0,.31.14.31.31v16.94c0,.17-.14.31-.31.31H.31c-.17,0-.31-.14-.31-.31V31.54C0,21.68,2.39,13.96,7.16,8.38,11.94,2.79,18.48,0,26.8,0c5.47,0,10.22,1.25,14.27,3.76,4.04,2.5,7.16,6.12,9.36,10.86,2.19,4.74,3.29,10.38,3.29,16.93v11.57c0,.59-.63.97-1.15.7l-27.29-11c-.29-.15-.18-.6.15-.58h.31s12.86.34,12.86.34Z"/>
</svg>
