<svg width="1015" height="300" viewBox="0 0 1015 300" fill="none" xmlns="http://www.w3.org/2000/svg">
<g clip-path="url(#clip0_138_221)">
<path d="M940.408 292.172C939.042 292.172 937.266 291.899 935.08 291.352C933.167 291.079 932.211 290.123 932.211 288.483C932.211 286.297 933.167 284.795 935.08 283.975C937.266 282.882 939.452 281.926 941.637 281.106C945.736 279.74 949.698 278.237 953.523 276.598C957.348 274.685 959.261 270.997 959.261 265.532V58.9688C959.261 51.0451 957.758 44.4875 954.753 39.2961C952.02 33.8315 947.239 30.4161 940.408 29.0499C938.222 28.5035 937.129 26.7275 937.129 23.7219C937.129 20.9896 938.085 19.3502 939.998 18.8037C947.102 17.1644 953.25 15.525 958.441 13.8856C963.633 11.973 968.414 10.0603 972.786 8.1477C977.431 6.23509 981.939 4.4591 986.311 2.81971C987.404 2.27324 988.223 2 988.77 2C989.316 2 989.726 2.40985 989.999 3.22955C990.546 3.77601 990.819 4.32247 990.819 4.86895C990.819 7.32803 990.273 12.656 989.18 20.853C988.36 28.7767 987.95 42.0284 987.95 60.6082V265.532C987.95 270.997 989.863 274.685 993.688 276.598C997.513 278.237 1001.48 279.74 1005.57 281.106C1007.76 281.926 1009.81 282.882 1011.72 283.975C1013.91 284.795 1015 286.297 1015 288.483C1015 290.123 1013.91 291.079 1011.72 291.352C1009.81 291.899 1008.17 292.172 1006.8 292.172C1001.61 292.172 997.377 291.899 994.098 291.352C991.092 291.079 988.087 290.806 985.081 290.533C982.349 290.259 978.524 290.123 973.606 290.123C968.961 290.123 965.135 290.259 962.13 290.533C959.124 290.806 956.119 291.079 953.113 291.352C950.108 291.899 945.873 292.172 940.408 292.172Z" fill="#2B0000"/>
<path d="M868.419 297.09C853.391 297.09 840.276 293.402 829.073 286.024C817.871 278.647 809.127 268.264 802.843 254.876C796.559 241.214 793.417 225.504 793.417 207.743C793.417 191.896 796.969 177.551 804.073 164.709C811.45 151.594 821.15 141.075 833.172 133.151C845.194 125.227 858.309 121.266 872.517 121.266C883.446 121.266 893.146 123.451 901.616 127.823C910.086 132.195 916.644 138.343 921.289 146.266C926.207 153.917 928.666 162.797 928.666 172.906C928.666 181.377 924.568 185.612 916.371 185.612H829.893C826.068 185.612 823.335 186.705 821.696 188.89C820.33 190.803 819.647 194.765 819.647 200.776C819.647 213.891 822.516 225.913 828.254 236.843C833.991 247.499 841.642 256.105 851.205 262.663C860.768 268.947 871.288 272.089 882.763 272.089C890.96 272.089 898.337 270.587 904.895 267.581C911.726 264.302 917.737 259.657 922.928 253.646C924.021 252.28 924.841 251.46 925.387 251.187C925.934 250.641 926.617 250.368 927.437 250.368C929.622 250.368 930.715 251.734 930.715 254.466C930.715 259.657 928.256 265.395 923.338 271.68C919.24 276.871 914.322 281.379 908.584 285.205C902.846 289.03 896.561 291.899 889.731 293.811C882.9 295.997 875.796 297.09 868.419 297.09ZM830.713 172.906H868.009C874.566 172.906 880.168 172.77 884.812 172.497C889.457 172.223 893.966 171.677 898.337 170.857C899.704 170.584 900.523 169.764 900.797 168.398C901.343 166.759 901.616 164.573 901.616 161.841C901.616 153.917 898.064 147.223 890.96 141.758C884.129 136.02 875.932 133.151 866.369 133.151C860.085 133.151 853.801 135.064 847.516 138.889C841.232 142.441 836.041 146.949 831.942 152.414C827.844 157.879 825.794 163.343 825.794 168.808C825.794 171.54 827.434 172.906 830.713 172.906Z" fill="#2B0000"/>
<path d="M692.738 296.68C686.727 296.68 680.716 296.134 674.705 295.041C668.694 293.948 662.956 292.718 657.491 291.352C651.48 289.713 646.152 288.21 641.507 286.844C637.136 285.478 634.267 284.795 632.901 284.795C631.261 284.795 629.622 285.341 627.982 286.434C626.616 287.527 625.25 288.757 623.884 290.123C622.518 291.489 621.288 292.172 620.195 292.172C619.102 292.172 617.873 291.762 616.507 290.942C615.141 289.85 614.457 288.62 614.457 287.254C614.457 284.795 614.867 280.56 615.687 274.549C616.78 268.537 617.326 262.936 617.326 257.745V58.9688C617.326 51.8648 615.55 45.7171 611.998 40.5257C608.446 35.3342 603.938 31.509 598.473 29.0499C597.38 28.5035 596.151 27.8204 594.785 27.0007C593.692 25.9078 593.145 24.5416 593.145 22.9022C593.145 21.5361 593.692 20.5798 594.785 20.0333C595.878 19.4868 596.971 19.077 598.063 18.8037C601.615 17.984 606.397 16.4813 612.408 14.2954C618.693 12.1096 624.567 9.92372 630.032 7.73786C635.496 5.55201 639.185 4.04923 641.097 3.22955C642.737 2.40985 643.966 2 644.786 2C645.333 2 645.879 2.27324 646.425 2.81971C646.972 3.36617 647.245 4.04924 647.245 4.86895C647.245 5.96187 646.972 10.6068 646.425 18.8037C646.152 26.7275 646.016 36.4272 646.016 47.9029V131.922C646.016 137.113 646.289 140.665 646.835 142.578C647.382 144.217 648.338 145.173 649.704 145.447C658.174 138.343 668.011 132.605 679.213 128.233C690.416 123.588 700.525 121.266 709.542 121.266C723.477 121.266 735.909 124.818 746.838 131.922C758.041 139.026 766.921 148.725 773.478 161.021C780.036 173.043 783.315 186.705 783.315 202.006C783.315 220.585 779.489 237.116 771.839 251.597C764.188 265.805 753.532 276.871 739.871 284.795C726.482 292.718 710.772 296.68 692.738 296.68ZM702.165 283.975C712.548 283.975 721.428 280.833 728.805 274.549C736.455 267.991 742.33 259.248 746.428 248.318C750.527 237.116 752.576 224.684 752.576 211.022C752.576 200.366 750.527 189.437 746.428 178.234C742.603 167.032 736.455 157.605 727.985 149.955C719.788 142.304 709.132 138.479 696.017 138.479C685.088 138.479 675.525 140.255 667.328 143.807C659.131 147.359 652.027 151.868 646.016 157.332V236.843C646.016 246.406 648.611 254.739 653.803 261.843C659.267 268.947 666.235 274.412 674.705 278.237C683.448 282.062 692.602 283.975 702.165 283.975Z" fill="#2B0000"/>
<path d="M530.583 297.09C515.555 297.09 502.44 293.402 491.237 286.024C480.035 278.647 471.291 268.264 465.007 254.876C458.723 241.214 455.581 225.504 455.581 207.743C455.581 191.896 459.133 177.551 466.237 164.709C473.614 151.594 483.314 141.075 495.336 133.151C507.358 125.227 520.473 121.266 534.681 121.266C545.61 121.266 555.31 123.451 563.78 127.823C572.25 132.195 578.808 138.343 583.453 146.266C588.371 153.917 590.83 162.797 590.83 172.906C590.83 181.377 586.732 185.612 578.535 185.612H492.057C488.232 185.612 485.499 186.705 483.86 188.89C482.494 190.803 481.811 194.765 481.811 200.776C481.811 213.891 484.68 225.913 490.418 236.843C496.155 247.499 503.806 256.105 513.369 262.663C522.932 268.947 533.452 272.089 544.927 272.089C553.124 272.089 560.502 270.587 567.059 267.581C573.89 264.302 579.901 259.657 585.092 253.646C586.185 252.28 587.005 251.46 587.551 251.187C588.098 250.641 588.781 250.368 589.601 250.368C591.787 250.368 592.879 251.734 592.879 254.466C592.879 259.657 590.42 265.395 585.502 271.68C581.404 276.871 576.486 281.379 570.748 285.205C565.01 289.03 558.726 291.899 551.895 293.811C545.064 295.997 537.96 297.09 530.583 297.09ZM492.877 172.906H530.173C536.73 172.906 542.332 172.77 546.977 172.497C551.621 172.223 556.13 171.677 560.502 170.857C561.868 170.584 562.687 169.764 562.961 168.398C563.507 166.759 563.78 164.573 563.78 161.841C563.78 153.917 560.228 147.223 553.124 141.758C546.293 136.02 538.097 133.151 528.533 133.151C522.249 133.151 515.965 135.064 509.68 138.889C503.396 142.441 498.205 146.949 494.106 152.414C490.008 157.879 487.959 163.343 487.959 168.808C487.959 171.54 489.598 172.906 492.877 172.906Z" fill="#2B0000"/>
<path d="M342.879 292.172C340.147 292.172 338.097 291.762 336.731 290.943C335.365 290.396 334.682 289.303 334.682 287.664C334.682 285.478 335.502 284.112 337.141 283.565C338.781 282.746 341.103 281.926 344.109 281.106C349.3 279.74 353.125 277.828 355.584 275.368C358.317 272.636 359.683 269.357 359.683 265.532V177.415C359.683 170.038 358.59 163.617 356.404 158.152C354.218 152.687 349.71 149.272 342.879 147.906C341.786 147.633 340.83 146.95 340.01 145.857C339.19 144.764 338.781 143.671 338.781 142.578C338.781 139.846 340.01 138.206 342.469 137.66C349.573 135.474 356.95 132.332 364.601 128.233C372.525 123.862 378.672 120.309 383.044 117.577C384.683 116.484 385.913 115.801 386.733 115.528C387.826 114.981 388.645 114.708 389.192 114.708C390.558 114.708 391.241 115.665 391.241 117.577C391.241 118.397 391.104 120.446 390.831 123.725C390.831 127.004 390.695 130.829 390.421 135.201C390.421 139.572 390.285 143.944 390.011 148.316C390.011 148.862 390.285 149.135 390.831 149.135C395.203 143.671 399.984 138.889 405.176 134.791C410.64 130.692 416.105 127.414 421.57 124.954C427.308 122.495 432.772 121.266 437.964 121.266C443.701 121.266 448.346 122.495 451.898 124.954C455.724 127.414 457.636 130.556 457.636 134.381C457.636 137.113 456.817 140.119 455.177 143.398C453.811 146.676 451.898 149.545 449.439 152.004C446.98 154.463 444.385 155.693 441.652 155.693C440.013 155.693 438.237 155.42 436.324 154.873C434.412 154.054 432.362 153.097 430.176 152.004C427.991 151.185 425.805 150.365 423.619 149.545C421.433 148.726 419.247 148.316 417.061 148.316C410.504 148.316 404.083 150.638 397.799 155.283C391.787 159.928 388.782 169.081 388.782 182.743V265.532C388.782 269.084 390.695 272.09 394.52 274.549C398.345 276.735 403.673 278.92 410.504 281.106C413.509 281.926 415.832 282.746 417.471 283.565C419.111 284.385 419.93 285.751 419.93 287.664C419.93 290.669 417.198 292.172 411.733 292.172C403.536 292.172 397.252 291.762 392.88 290.943C388.782 290.396 383.181 290.123 376.077 290.123C371.432 290.123 367.606 290.26 364.601 290.533C361.869 290.806 358.863 291.079 355.584 291.352C352.579 291.899 348.344 292.172 342.879 292.172Z" fill="#2B0000"/>
<path d="M266.791 297.09C251.764 297.09 238.649 293.402 227.446 286.024C216.244 278.647 207.5 268.264 201.216 254.876C194.932 241.214 191.789 225.504 191.789 207.743C191.789 191.896 195.341 177.551 202.445 164.709C209.823 151.594 219.522 141.075 231.545 133.151C243.567 125.227 256.682 121.266 270.89 121.266C281.819 121.266 291.519 123.451 299.989 127.823C308.459 132.195 315.017 138.343 319.662 146.266C324.58 153.917 327.039 162.797 327.039 172.906C327.039 181.377 322.941 185.612 314.744 185.612H228.266C224.441 185.612 221.708 186.705 220.069 188.89C218.703 190.803 218.02 194.765 218.02 200.776C218.02 213.891 220.889 225.913 226.626 236.843C232.364 247.499 240.015 256.105 249.578 262.663C259.141 268.947 269.66 272.089 281.136 272.089C289.333 272.089 296.71 270.587 303.268 267.581C310.099 264.302 316.11 259.657 321.301 253.646C322.394 252.28 323.214 251.46 323.76 251.187C324.307 250.641 324.99 250.368 325.809 250.368C327.995 250.368 329.088 251.734 329.088 254.466C329.088 259.657 326.629 265.395 321.711 271.68C317.613 276.871 312.694 281.379 306.956 285.205C301.219 289.03 294.934 291.899 288.104 293.811C281.273 295.997 274.169 297.09 266.791 297.09ZM229.085 172.906H266.382C272.939 172.906 278.54 172.77 283.185 172.497C287.83 172.223 292.339 171.677 296.71 170.857C298.076 170.584 298.896 169.764 299.169 168.398C299.716 166.759 299.989 164.573 299.989 161.841C299.989 153.917 296.437 147.223 289.333 141.758C282.502 136.02 274.305 133.151 264.742 133.151C258.458 133.151 252.174 135.064 245.889 138.889C239.605 142.441 234.413 146.949 230.315 152.414C226.217 157.879 224.167 163.343 224.167 168.808C224.167 171.54 225.807 172.906 229.085 172.906Z" fill="#2B0000"/>
<path d="M11.8856 292.992C8.33357 292.992 5.46463 292.582 3.27878 291.762C1.09293 291.216 0 290.123 0 288.483C0 285.205 4.50832 282.746 13.525 281.106C23.9078 279.194 31.4216 276.051 36.0666 271.68C40.9847 267.308 43.4438 260.067 43.4438 249.958V77.0022C43.4438 64.7068 41.8044 55.2803 38.5257 48.7227C35.5201 42.1652 28.8259 37.9301 18.4431 36.0175C13.7982 35.1978 10.3828 34.1049 8.19695 32.7387C6.0111 31.3725 4.91817 29.7331 4.91817 27.8205C4.91817 26.1811 6.0111 25.0882 8.19695 24.5417C10.3828 23.722 13.2517 23.3122 16.8037 23.3122C24.181 23.3122 29.6456 23.3122 33.1976 23.3122C37.0229 23.3122 40.5749 23.4488 43.8537 23.722C47.1325 23.722 51.5042 23.722 56.9688 23.722C62.4334 23.722 67.8981 23.5854 73.3627 23.3122C79.1006 22.7657 84.4286 22.3559 89.3467 22.0827C94.2649 21.5362 98.6366 21.2629 102.462 21.2629C133.61 21.2629 158.611 27.6839 177.464 40.5258C196.59 53.3677 206.153 71.2643 206.153 94.2158C206.153 110.883 202.874 126.321 196.317 140.529C189.759 154.463 179.65 165.666 165.988 174.136C152.6 182.606 135.386 186.841 114.347 186.841C108.336 186.841 103.691 186.022 100.413 184.382C97.4071 182.47 95.9043 180.694 95.9043 179.054C95.9043 177.961 96.5874 176.732 97.9535 175.366C99.5929 173.999 101.096 173.316 102.462 173.316C103.828 173.316 105.877 173.453 108.61 173.726C111.615 173.999 115.85 174.136 121.315 174.136C137.709 174.136 150.004 167.305 158.201 153.644C166.671 139.982 170.906 121.129 170.906 97.0847C170.906 75.2262 164.485 59.1055 151.644 48.7227C138.802 38.0667 122.408 32.7387 102.462 32.7387C94.8114 32.7387 88.527 34.1048 83.6089 36.8372C78.6907 39.2962 76.2316 43.668 76.2316 49.9523V245.449C76.2316 255.286 78.2809 263.21 82.3793 269.221C86.4778 275.232 93.5818 279.194 103.691 281.106C108.336 281.926 111.752 282.882 113.938 283.975C116.123 285.068 117.216 286.571 117.216 288.483C117.216 290.123 116.123 291.216 113.938 291.762C111.752 292.582 108.883 292.992 105.331 292.992C97.9535 292.992 92.2157 292.719 88.1172 292.172C84.292 291.626 80.7399 291.216 77.4612 290.943C74.4556 290.396 70.3571 290.123 65.1657 290.123C58.335 290.123 52.1872 290.396 46.7226 290.943C41.5312 291.216 36.2032 291.626 30.7386 292.172C25.5472 292.719 19.2628 292.992 11.8856 292.992Z" fill="#2B0000"/>
</g>
<defs>
<clipPath id="clip0_138_221">
<rect width="1015" height="300" fill="white"/>
</clipPath>
</defs>
</svg>
