<svg width="1015" height="300" viewBox="0 0 1015 300" fill="none" xmlns="http://www.w3.org/2000/svg">
<g clip-path="url(#clip0_138_230)">
<path d="M940.408 290.172C939.042 290.172 937.266 289.899 935.08 289.352C933.167 289.079 932.211 288.123 932.211 286.483C932.211 284.297 933.167 282.795 935.08 281.975C937.266 280.882 939.452 279.926 941.637 279.106C945.736 277.74 949.698 276.237 953.523 274.598C957.348 272.685 959.261 268.997 959.261 263.532V56.9688C959.261 49.0451 957.758 42.4875 954.753 37.2961C952.02 31.8315 947.239 28.4161 940.408 27.0499C938.222 26.5035 937.129 24.7275 937.129 21.7219C937.129 18.9896 938.085 17.3502 939.998 16.8037C947.102 15.1644 953.25 13.525 958.441 11.8856C963.633 9.97295 968.414 8.06033 972.786 6.1477C977.431 4.23509 981.939 2.4591 986.311 0.819711C987.404 0.273239 988.223 0 988.77 0C989.316 0 989.726 0.409849 989.999 1.22955C990.546 1.77601 990.819 2.32247 990.819 2.86895C990.819 5.32803 990.273 10.656 989.18 18.853C988.36 26.7767 987.95 40.0284 987.95 58.6082V263.532C987.95 268.997 989.863 272.685 993.688 274.598C997.513 276.237 1001.48 277.74 1005.57 279.106C1007.76 279.926 1009.81 280.882 1011.72 281.975C1013.91 282.795 1015 284.297 1015 286.483C1015 288.123 1013.91 289.079 1011.72 289.352C1009.81 289.899 1008.17 290.172 1006.8 290.172C1001.61 290.172 997.377 289.899 994.098 289.352C991.092 289.079 988.087 288.806 985.081 288.533C982.349 288.259 978.524 288.123 973.606 288.123C968.961 288.123 965.135 288.259 962.13 288.533C959.124 288.806 956.119 289.079 953.113 289.352C950.108 289.899 945.873 290.172 940.408 290.172Z" fill="white"/>
<path d="M868.419 295.09C853.391 295.09 840.276 291.402 829.073 284.024C817.871 276.647 809.127 266.264 802.843 252.876C796.559 239.214 793.417 223.504 793.417 205.743C793.417 189.896 796.969 175.551 804.073 162.709C811.45 149.594 821.15 139.075 833.172 131.151C845.194 123.227 858.309 119.266 872.517 119.266C883.446 119.266 893.146 121.451 901.616 125.823C910.086 130.195 916.644 136.343 921.289 144.266C926.207 151.917 928.666 160.797 928.666 170.906C928.666 179.377 924.568 183.612 916.371 183.612H829.893C826.068 183.612 823.335 184.705 821.696 186.89C820.33 188.803 819.647 192.765 819.647 198.776C819.647 211.891 822.516 223.913 828.254 234.843C833.991 245.499 841.642 254.105 851.205 260.663C860.768 266.947 871.288 270.089 882.763 270.089C890.96 270.089 898.337 268.587 904.895 265.581C911.726 262.302 917.737 257.657 922.928 251.646C924.021 250.28 924.841 249.46 925.387 249.187C925.934 248.641 926.617 248.368 927.437 248.368C929.622 248.368 930.715 249.734 930.715 252.466C930.715 257.657 928.256 263.395 923.338 269.68C919.24 274.871 914.322 279.379 908.584 283.205C902.846 287.03 896.561 289.899 889.731 291.811C882.9 293.997 875.796 295.09 868.419 295.09ZM830.713 170.906H868.009C874.566 170.906 880.168 170.77 884.812 170.497C889.457 170.223 893.966 169.677 898.337 168.857C899.704 168.584 900.523 167.764 900.797 166.398C901.343 164.759 901.616 162.573 901.616 159.841C901.616 151.917 898.064 145.223 890.96 139.758C884.129 134.02 875.932 131.151 866.369 131.151C860.085 131.151 853.801 133.064 847.516 136.889C841.232 140.441 836.041 144.949 831.942 150.414C827.844 155.879 825.794 161.343 825.794 166.808C825.794 169.54 827.434 170.906 830.713 170.906Z" fill="white"/>
<path d="M692.738 294.68C686.727 294.68 680.716 294.134 674.705 293.041C668.694 291.948 662.956 290.718 657.491 289.352C651.48 287.713 646.152 286.21 641.507 284.844C637.136 283.478 634.267 282.795 632.901 282.795C631.261 282.795 629.622 283.341 627.982 284.434C626.616 285.527 625.25 286.757 623.884 288.123C622.518 289.489 621.288 290.172 620.195 290.172C619.102 290.172 617.873 289.762 616.507 288.942C615.141 287.85 614.457 286.62 614.457 285.254C614.457 282.795 614.867 278.56 615.687 272.549C616.78 266.537 617.326 260.936 617.326 255.745V56.9688C617.326 49.8648 615.55 43.7171 611.998 38.5257C608.446 33.3342 603.938 29.509 598.473 27.0499C597.38 26.5035 596.151 25.8204 594.785 25.0007C593.692 23.9078 593.145 22.5416 593.145 20.9022C593.145 19.5361 593.692 18.5798 594.785 18.0333C595.878 17.4868 596.971 17.077 598.063 16.8037C601.615 15.984 606.397 14.4813 612.408 12.2954C618.693 10.1096 624.567 7.92372 630.032 5.73786C635.496 3.55201 639.185 2.04923 641.097 1.22955C642.737 0.409849 643.966 0 644.786 0C645.333 0 645.879 0.273238 646.425 0.819711C646.972 1.36617 647.245 2.04924 647.245 2.86895C647.245 3.96187 646.972 8.60681 646.425 16.8037C646.152 24.7275 646.016 34.4272 646.016 45.9029V129.922C646.016 135.113 646.289 138.665 646.835 140.578C647.382 142.217 648.338 143.173 649.704 143.447C658.174 136.343 668.011 130.605 679.213 126.233C690.416 121.588 700.525 119.266 709.542 119.266C723.477 119.266 735.909 122.818 746.838 129.922C758.041 137.026 766.921 146.725 773.478 159.021C780.036 171.043 783.315 184.705 783.315 200.006C783.315 218.585 779.489 235.116 771.839 249.597C764.188 263.805 753.532 274.871 739.871 282.795C726.482 290.718 710.772 294.68 692.738 294.68ZM702.165 281.975C712.548 281.975 721.428 278.833 728.805 272.549C736.455 265.991 742.33 257.248 746.428 246.318C750.527 235.116 752.576 222.684 752.576 209.022C752.576 198.366 750.527 187.437 746.428 176.234C742.603 165.032 736.455 155.605 727.985 147.955C719.788 140.304 709.132 136.479 696.017 136.479C685.088 136.479 675.525 138.255 667.328 141.807C659.131 145.359 652.027 149.868 646.016 155.332V234.843C646.016 244.406 648.611 252.739 653.803 259.843C659.267 266.947 666.235 272.412 674.705 276.237C683.448 280.062 692.602 281.975 702.165 281.975Z" fill="white"/>
<path d="M530.583 295.09C515.555 295.09 502.44 291.402 491.237 284.024C480.035 276.647 471.291 266.264 465.007 252.876C458.723 239.214 455.581 223.504 455.581 205.743C455.581 189.896 459.133 175.551 466.237 162.709C473.614 149.594 483.314 139.075 495.336 131.151C507.358 123.227 520.473 119.266 534.681 119.266C545.61 119.266 555.31 121.451 563.78 125.823C572.25 130.195 578.808 136.343 583.453 144.266C588.371 151.917 590.83 160.797 590.83 170.906C590.83 179.377 586.732 183.612 578.535 183.612H492.057C488.232 183.612 485.499 184.705 483.86 186.89C482.494 188.803 481.811 192.765 481.811 198.776C481.811 211.891 484.68 223.913 490.418 234.843C496.155 245.499 503.806 254.105 513.369 260.663C522.932 266.947 533.452 270.089 544.927 270.089C553.124 270.089 560.502 268.587 567.059 265.581C573.89 262.302 579.901 257.657 585.092 251.646C586.185 250.28 587.005 249.46 587.551 249.187C588.098 248.641 588.781 248.368 589.601 248.368C591.787 248.368 592.879 249.734 592.879 252.466C592.879 257.657 590.42 263.395 585.502 269.68C581.404 274.871 576.486 279.379 570.748 283.205C565.01 287.03 558.726 289.899 551.895 291.811C545.064 293.997 537.96 295.09 530.583 295.09ZM492.877 170.906H530.173C536.73 170.906 542.332 170.77 546.977 170.497C551.621 170.223 556.13 169.677 560.502 168.857C561.868 168.584 562.687 167.764 562.961 166.398C563.507 164.759 563.78 162.573 563.78 159.841C563.78 151.917 560.228 145.223 553.124 139.758C546.293 134.02 538.097 131.151 528.533 131.151C522.249 131.151 515.965 133.064 509.68 136.889C503.396 140.441 498.205 144.949 494.106 150.414C490.008 155.879 487.959 161.343 487.959 166.808C487.959 169.54 489.598 170.906 492.877 170.906Z" fill="white"/>
<path d="M342.879 290.172C340.147 290.172 338.097 289.762 336.731 288.943C335.365 288.396 334.682 287.303 334.682 285.664C334.682 283.478 335.502 282.112 337.141 281.565C338.781 280.746 341.103 279.926 344.109 279.106C349.3 277.74 353.125 275.828 355.584 273.368C358.317 270.636 359.683 267.357 359.683 263.532V175.415C359.683 168.038 358.59 161.617 356.404 156.152C354.218 150.687 349.71 147.272 342.879 145.906C341.786 145.633 340.83 144.95 340.01 143.857C339.19 142.764 338.781 141.671 338.781 140.578C338.781 137.846 340.01 136.206 342.469 135.66C349.573 133.474 356.95 130.332 364.601 126.233C372.525 121.862 378.672 118.309 383.044 115.577C384.683 114.484 385.913 113.801 386.733 113.528C387.826 112.981 388.645 112.708 389.192 112.708C390.558 112.708 391.241 113.665 391.241 115.577C391.241 116.397 391.104 118.446 390.831 121.725C390.831 125.004 390.695 128.829 390.421 133.201C390.421 137.572 390.285 141.944 390.011 146.316C390.011 146.862 390.285 147.135 390.831 147.135C395.203 141.671 399.984 136.889 405.176 132.791C410.64 128.692 416.105 125.414 421.57 122.954C427.308 120.495 432.772 119.266 437.964 119.266C443.701 119.266 448.346 120.495 451.898 122.954C455.724 125.414 457.636 128.556 457.636 132.381C457.636 135.113 456.817 138.119 455.177 141.398C453.811 144.676 451.898 147.545 449.439 150.004C446.98 152.463 444.385 153.693 441.652 153.693C440.013 153.693 438.237 153.42 436.324 152.873C434.412 152.054 432.362 151.097 430.176 150.004C427.991 149.185 425.805 148.365 423.619 147.545C421.433 146.726 419.247 146.316 417.061 146.316C410.504 146.316 404.083 148.638 397.799 153.283C391.787 157.928 388.782 167.081 388.782 180.743V263.532C388.782 267.084 390.695 270.09 394.52 272.549C398.345 274.735 403.673 276.92 410.504 279.106C413.509 279.926 415.832 280.746 417.471 281.565C419.111 282.385 419.93 283.751 419.93 285.664C419.93 288.669 417.198 290.172 411.733 290.172C403.536 290.172 397.252 289.762 392.88 288.943C388.782 288.396 383.181 288.123 376.077 288.123C371.432 288.123 367.606 288.26 364.601 288.533C361.869 288.806 358.863 289.079 355.584 289.352C352.579 289.899 348.344 290.172 342.879 290.172Z" fill="white"/>
<path d="M266.791 295.09C251.764 295.09 238.649 291.402 227.446 284.024C216.244 276.647 207.5 266.264 201.216 252.876C194.932 239.214 191.789 223.504 191.789 205.743C191.789 189.896 195.341 175.551 202.445 162.709C209.823 149.594 219.522 139.075 231.545 131.151C243.567 123.227 256.682 119.266 270.89 119.266C281.819 119.266 291.519 121.451 299.989 125.823C308.459 130.195 315.017 136.343 319.662 144.266C324.58 151.917 327.039 160.797 327.039 170.906C327.039 179.377 322.941 183.612 314.744 183.612H228.266C224.441 183.612 221.708 184.705 220.069 186.89C218.703 188.803 218.02 192.765 218.02 198.776C218.02 211.891 220.889 223.913 226.626 234.843C232.364 245.499 240.015 254.105 249.578 260.663C259.141 266.947 269.66 270.089 281.136 270.089C289.333 270.089 296.71 268.587 303.268 265.581C310.099 262.302 316.11 257.657 321.301 251.646C322.394 250.28 323.214 249.46 323.76 249.187C324.307 248.641 324.99 248.368 325.809 248.368C327.995 248.368 329.088 249.734 329.088 252.466C329.088 257.657 326.629 263.395 321.711 269.68C317.613 274.871 312.694 279.379 306.956 283.205C301.219 287.03 294.934 289.899 288.104 291.811C281.273 293.997 274.169 295.09 266.791 295.09ZM229.085 170.906H266.382C272.939 170.906 278.54 170.77 283.185 170.497C287.83 170.223 292.339 169.677 296.71 168.857C298.076 168.584 298.896 167.764 299.169 166.398C299.716 164.759 299.989 162.573 299.989 159.841C299.989 151.917 296.437 145.223 289.333 139.758C282.502 134.02 274.305 131.151 264.742 131.151C258.458 131.151 252.174 133.064 245.889 136.889C239.605 140.441 234.413 144.949 230.315 150.414C226.217 155.879 224.167 161.343 224.167 166.808C224.167 169.54 225.807 170.906 229.085 170.906Z" fill="white"/>
<path d="M11.8856 290.992C8.33357 290.992 5.46463 290.582 3.27878 289.762C1.09293 289.216 0 288.123 0 286.483C0 283.205 4.50832 280.746 13.525 279.106C23.9078 277.194 31.4216 274.051 36.0666 269.68C40.9847 265.308 43.4438 258.067 43.4438 247.958V75.0022C43.4438 62.7068 41.8044 53.2803 38.5257 46.7227C35.5201 40.1652 28.8259 35.9301 18.4431 34.0175C13.7982 33.1978 10.3828 32.1049 8.19695 30.7387C6.0111 29.3725 4.91817 27.7331 4.91817 25.8205C4.91817 24.1811 6.0111 23.0882 8.19695 22.5417C10.3828 21.722 13.2517 21.3122 16.8037 21.3122C24.181 21.3122 29.6456 21.3122 33.1976 21.3122C37.0229 21.3122 40.5749 21.4488 43.8537 21.722C47.1325 21.722 51.5042 21.722 56.9688 21.722C62.4334 21.722 67.8981 21.5854 73.3627 21.3122C79.1006 20.7657 84.4286 20.3559 89.3467 20.0827C94.2649 19.5362 98.6366 19.2629 102.462 19.2629C133.61 19.2629 158.611 25.6839 177.464 38.5258C196.59 51.3677 206.153 69.2643 206.153 92.2158C206.153 108.883 202.874 124.321 196.317 138.529C189.759 152.463 179.65 163.666 165.988 172.136C152.6 180.606 135.386 184.841 114.347 184.841C108.336 184.841 103.691 184.022 100.413 182.382C97.4071 180.47 95.9043 178.694 95.9043 177.054C95.9043 175.961 96.5874 174.732 97.9535 173.366C99.5929 171.999 101.096 171.316 102.462 171.316C103.828 171.316 105.877 171.453 108.61 171.726C111.615 171.999 115.85 172.136 121.315 172.136C137.709 172.136 150.004 165.305 158.201 151.644C166.671 137.982 170.906 119.129 170.906 95.0847C170.906 73.2262 164.485 57.1055 151.644 46.7227C138.802 36.0667 122.408 30.7387 102.462 30.7387C94.8114 30.7387 88.527 32.1048 83.6089 34.8372C78.6907 37.2962 76.2316 41.668 76.2316 47.9523V243.449C76.2316 253.286 78.2809 261.21 82.3793 267.221C86.4778 273.232 93.5818 277.194 103.691 279.106C108.336 279.926 111.752 280.882 113.938 281.975C116.123 283.068 117.216 284.571 117.216 286.483C117.216 288.123 116.123 289.216 113.938 289.762C111.752 290.582 108.883 290.992 105.331 290.992C97.9535 290.992 92.2157 290.719 88.1172 290.172C84.292 289.626 80.7399 289.216 77.4612 288.943C74.4556 288.396 70.3571 288.123 65.1657 288.123C58.335 288.123 52.1872 288.396 46.7226 288.943C41.5312 289.216 36.2032 289.626 30.7386 290.172C25.5472 290.719 19.2628 290.992 11.8856 290.992Z" fill="white"/>
</g>
<defs>
<clipPath id="clip0_138_230">
<rect width="1015" height="300" fill="white"/>
</clipPath>
</defs>
</svg>
